HIERARCHY
ROOT Hips
{
 OFFSET 0.000000 0.000000 0.000000
 CHANNELS 6 Xposition Yposition Zposition Yrotation Xrotation Zrotation
 JOINT Chest
 {
  OFFSET 0.000000 9.585900 0.002600
  CHANNELS 3 Yrotation Xrotation Zrotation
  JOINT Chest2
  {
   OFFSET 0.000000 9.601200 -0.005300
   CHANNELS 3 Yrotation Xrotation Zrotation
   JOINT Chest3
   {
    OFFSET 0.000000 9.561800 0.000000
    CHANNELS 3 Yrotation Xrotation Zrotation
    JOINT Chest4
    {
     OFFSET 0.000000 9.552100 0.000000
     CHANNELS 3 Yrotation Xrotation Zrotation
     JOINT Neck
     {
      OFFSET 0.000000 14.453000 0.000000
      CHANNELS 3 Yrotation Xrotation Zrotation
      JOINT Head
      {
       OFFSET 0.000000 8.936500 -0.011300
       CHANNELS 3 Yrotation Xrotation Zrotation
       End Site
       {
        OFFSET 0.000000 17.073600 -0.006000
       }
      }
     }
     JOINT RightCollar
     {
      OFFSET -2.921100 9.558500 0.000000
      CHANNELS 3 Yrotation Xrotation Zrotation
      JOINT RightShoulder
      {
       OFFSET -13.519700 0.000000 0.000000
       CHANNELS 3 Yrotation Xrotation Zrotation
       JOINT RightElbow
       {
        OFFSET 0.000000 -29.696600 0.000000
        CHANNELS 3 Yrotation Xrotation Zrotation
        JOINT RightWrist
        {
         OFFSET 0.000000 -24.004700 0.000000
         CHANNELS 3 Yrotation Xrotation Zrotation
         End Site
         {
          OFFSET 0.000000 -17.728500 0.000000
         }
        }
       }
      }
     }
     JOINT LeftCollar
     {
      OFFSET 2.921100 9.558500 0.000000
      CHANNELS 3 Yrotation Xrotation Zrotation
      JOINT LeftShoulder
      {
       OFFSET 13.519700 0.000000 0.000000
       CHANNELS 3 Yrotation Xrotation Zrotation
       JOINT LeftElbow
       {
        OFFSET 0.000000 -29.696600 0.000000
        CHANNELS 3 Yrotation Xrotation Zrotation
        JOINT LeftWrist
        {
         OFFSET 0.000000 -24.004700 0.000000
         CHANNELS 3 Yrotation Xrotation Zrotation
         End Site
         {
          OFFSET 0.000000 -17.728500 0.000000
         }
        }
       }
      }
     }
    }
   }
  }
 }
 JOINT RightHip
 {
  OFFSET -7.771700 -0.012900 -0.001300
  CHANNELS 3 Yrotation Xrotation Zrotation
  JOINT RightKnee
  {
   OFFSET 0.000000 -40.869800 0.001200
   CHANNELS 3 Yrotation Xrotation Zrotation
   JOINT RightAnkle
   {
    OFFSET 0.000000 -39.717900 0.002100
    CHANNELS 3 Yrotation Xrotation Zrotation
    JOINT RightToe
    {
     OFFSET 0.000000 -4.965400 11.033500
     CHANNELS 3 Yrotation Xrotation Zrotation
     End Site
     {
      OFFSET 0.000000 -1.423100 5.872300
     }
    }
   }
  }
 }
 JOINT LeftHip
 {
  OFFSET 7.771700 -0.012900 -0.001300
  CHANNELS 3 Yrotation Xrotation Zrotation
  JOINT LeftKnee
  {
   OFFSET 0.000000 -40.869800 0.001200
   CHANNELS 3 Yrotation Xrotation Zrotation
   JOINT LeftAnkle
   {
    OFFSET 0.000000 -39.717900 0.002100
    CHANNELS 3 Yrotation Xrotation Zrotation
    JOINT LeftToe
    {
     OFFSET 0.000000 -4.965400 11.033500
     CHANNELS 3 Yrotation Xrotation Zrotation
     End Site
     {
      OFFSET 0.000000 -1.423100 5.872300
     }
    }
   }
  }
 }
}
MOTION
Frames: 12
Frame Time: 0.008333
-4.070484 52.947925 18.887844 179.026840 -15.571757 -2.668188 0.881291 15.390430 1.432123 0.068691 1.455463 0.134890 0.117448 2.445533 0.227790 0.810227 13.742869 1.358043 -0.691552 16.369246 -4.150673 0.208558 -8.444524 -4.234206 1.465145 -1.065512 2.424277 1.844541 -7.406695 -7.210908 -86.910252 -81.473977 117.729411 -5.677334 -20.541436 -10.937383 -6.036615 -1.588247 1.493267 1.518460 -6.766241 9.599859 62.088173 -59.500278 -105.499812 3.266784 -7.966327 10.614228 0.436839 -62.482776 12.983438 171.235192 86.148398 170.305853 -10.375178 -21.681311 13.675982 0.016468 0.017829 0.008159 3.501658 -61.272939 -1.485466 121.514089 77.451495 120.781629 -4.866151 -21.190050 -2.206233 0.022813 0.128722 0.019198
-4.070389 52.948323 18.886334 179.026693 -15.564829 -2.666414 0.886639 15.394978 1.427152 0.075323 1.473807 0.128817 0.117258 2.447066 0.228258 0.813345 13.737068 1.360440 -0.691968 16.347961 -4.144932 0.212244 -8.480394 -4.231822 1.456534 -1.095263 2.428195 1.839891 -7.407338 -7.215343 -86.952955 -81.462868 117.773108 -5.679866 -20.542550 -10.938206 -6.054527 -1.626342 1.514841 1.540600 -6.767182 9.600713 62.106107 -59.497203 -105.530408 3.262074 -7.968787 10.615962 0.450642 -62.490748 12.978705 171.340145 86.148410 170.423009 -10.419539 -21.682940 13.684611 0.015456 0.014164 0.006177 3.505284 -61.279321 -1.491693 121.513159 77.452371 120.781862 -4.863366 -21.187387 -2.202995 0.019788 0.125722 0.012443
-4.068885 52.949046 18.884189 179.026827 -15.560793 -2.673709 0.892912 15.405286 1.429552 0.074947 1.467323 0.132421 0.115318 2.443766 0.229270 0.822791 13.756200 1.353764 -0.691503 16.327276 -4.138573 0.212695 -8.507762 -4.225043 1.448493 -1.122912 2.431762 1.836721 -7.409490 -7.218978 -86.983982 -81.451648 117.807573 -5.677474 -20.577674 -10.930782 -6.072335 -1.657200 1.537442 1.559285 -6.782228 9.611401 62.125553 -59.480062 -105.557679 3.260551 -7.971336 10.619072 0.443704 -62.490357 12.949695 170.815724 86.139491 169.862328 -10.114178 -21.705603 13.639282 0.008249 -0.012588 -0.007269 3.492128 -61.284201 -1.478243 121.533130 77.453016 120.803190 -4.855359 -21.189352 -2.203590 0.015321 0.124927 0.009923
-4.067212 52.949915 18.882122 179.026570 -15.555645 -2.682482 0.905042 15.414204 1.437226 0.070711 1.460907 0.134284 0.120703 2.454283 0.226770 0.821884 13.759134 1.348892 -0.689456 16.306564 -4.131880 0.213371 -8.530338 -4.218157 1.445685 -1.150203 2.425231 1.829687 -7.411166 -7.211493 -87.230424 -81.451625 118.066478 -5.678905 -20.632654 -10.937100 -6.083522 -1.690012 1.563831 1.568522 -6.783152 9.611692 62.165455 -59.473205 -105.599090 3.259277 -7.971872 10.622195 0.425950 -62.490307 12.933773 170.369600 86.133101 169.380200 -9.820580 -21.725575 13.592814 0.020231 -0.031880 -0.015166 3.468661 -61.289403 -1.456752 121.548511 77.457566 120.823092 -4.849228 -21.188514 -2.209405 0.020334 0.123161 0.008261
-4.067848 52.950858 18.880105 179.024995 -15.549882 -2.677635 0.908744 15.427114 1.426233 0.073015 1.469385 0.130732 0.122704 2.458254 0.225181 0.821727 13.738111 1.355997 -0.685560 16.295018 -4.131290 0.213992 -8.554709 -4.210519 1.444719 -1.166607 2.418297 1.824753 -7.414467 -7.208557 -87.330254 -81.446967 118.172665 -5.688270 -20.636636 -10.942145 -6.090580 -1.712961 1.583428 1.583570 -6.785633 9.612719 62.201108 -59.466032 -105.639893 3.259553 -7.971114 10.621553 0.429158 -62.495062 12.939755 170.576217 86.134761 169.595601 -9.864725 -21.725670 13.597870 0.015994 -0.026677 -0.011208 3.470143 -61.292905 -1.461456 121.540017 77.457986 120.812109 -4.847708 -21.186033 -2.209716 0.020003 0.121652 0.007078
-4.068760 52.951981 18.878242 179.020570 -15.544029 -2.670912 0.913182 15.426856 1.417962 0.073600 1.477896 0.128266 0.123603 2.460702 0.224547 0.824817 13.732438 1.355835 -0.682173 16.281549 -4.128816 0.216345 -8.582263 -4.204011 1.436838 -1.185821 2.407579 1.821271 -7.417592 -7.200453 -87.417687 -81.442027 118.267868 -5.699129 -20.640137 -10.946215 -6.096530 -1.736383 1.604968 1.596503 -6.783982 9.606761 62.235242 -59.467445 -105.677404 3.260577 -7.971596 10.621562 0.436685 -62.501465 12.959505 170.970385 86.140137 170.015230 -10.037835 -21.715943 13.622829 0.007250 -0.015732 -0.004666 3.472448 -61.293452 -1.466810 121.511481 77.457398 120.783063 -4.849989 -21.186504 -2.216491 0.022982 0.123688 0.009125
-4.069299 52.953375 18.876302 179.020059 -15.539904 -2.667877 0.914106 15.435530 1.410711 0.074015 1.480522 0.127713 0.123908 2.463563 0.224142 0.832010 13.735356 1.352464 -0.680333 16.256467 -4.121954 0.223254 -8.614088 -4.200184 1.427566 -1.217654 2.399683 1.811938 -7.417297 -7.191966 -87.472941 -81.434740 118.331753 -5.699450 -20.662917 -10.937828 -6.122321 -1.774850 1.640500 1.622172 -6.770455 9.587973 62.276129 -59.473363 -105.716134 3.268746 -7.961503 10.623367 0.438084 -62.503289 12.954239 170.966965 86.139353 170.006177 -10.013001 -21.718013 13.621232 0.008492 -0.019769 -0.005537 3.476267 -61.293946 -1.471934 121.501050 77.459639 120.768967 -4.845015 -21.186643 -2.213383 0.018145 0.125192 0.007012
-4.069210 52.954915 18.874587 179.023294 -15.535974 -2.669844 0.912829 15.459058 1.403093 0.072427 1.468422 0.132519 0.125288 2.462493 0.224553 0.827081 13.774375 1.340571 -0.666130 16.197291 -4.109523 0.233256 -8.648358 -4.198353 1.435047 -1.285993 2.396449 1.795905 -7.410050 -7.185296 -87.571404 -81.428305 118.435485 -5.682777 -20.703227 -10.942713 -6.119829 -1.828724 1.664057 1.631424 -6.773581 9.587541 62.318505 -59.476431 -105.752938 3.273941 -7.950762 10.622607 0.430930 -62.503667 12.948185 170.877133 86.138791 169.905071 -9.951573 -21.722920 13.614456 0.062627 -0.018916 -0.002487 3.466485 -61.294237 -1.467532 121.483677 77.461112 120.750201 -4.841310 -21.188241 -2.214713 0.017773 0.128316 0.006422
-4.068348 52.956488 18.873378 179.025201 -15.530748 -2.676104 0.910025 15.466130 1.404777 0.073702 1.463519 0.134274 0.123323 2.472114 0.222235 0.827582 13.769768 1.341048 -0.660221 16.176112 -4.109510 0.243465 -8.683951 -4.196987 1.430677 -1.311530 2.365735 1.784866 -7.404176 -7.162191 -87.700088 -81.423882 118.566777 -5.680164 -20.710878 -10.947765 -6.130312 -1.853831 1.680898 1.652788 -6.773065 9.577008 62.321852 -59.472121 -105.754186 3.255270 -7.964242 10.622296 0.418758 -62.504949 12.934701 170.543591 86.134160 169.549111 -9.799853 -21.730295 13.591338 0.019705 -0.034154 -0.005472 3.444944 -61.296975 -1.450153 121.469943 77.462811 120.736435 -4.838900 -21.188280 -2.219992 0.020073 0.130074 0.007335
-4.069039 52.958008 18.872094 179.026169 -15.527144 -2.672572 0.906595 15.468428 1.398603 0.072376 1.464487 0.134773 0.124628 2.485842 0.218058 0.823833 13.760858 1.343174 -0.650667 16.154126 -4.111330 0.248375 -8.708865 -4.193814 1.431715 -1.331918 2.350649 1.773870 -7.403191 -7.156720 -87.716187 -81.414303 118.591467 -5.666013 -20.732490 -10.962710 -6.138374 -1.873118 1.697835 1.666730 -6.772545 9.568154 62.342411 -59.467284 -105.761796 3.212916 -8.007169 10.620781 0.424530 -62.508381 12.952283 170.894945 86.141392 169.927840 -10.010773 -21.721440 13.626913 0.010495 -0.017255 0.001678 3.440681 -61.298358 -1.451245 121.461037 77.463906 120.725050 -4.839576 -21.184316 -2.221914 0.021222 0.129315 0.008047
-4.070297 52.959409 18.870912 179.024301 -15.523945 -2.664623 0.906026 15.470938 1.388393 0.077179 1.481005 0.129331 0.125464 2.479052 0.221269 0.826110 13.794733 1.330029 -0.647565 16.099298 -4.092627 0.248541 -8.715453 -4.191516 1.420234 -1.391881 2.352538 1.766461 -7.402700 -7.151017 -87.717474 -81.406499 118.596782 -5.655864 -20.754998 -10.980041 -6.153205 -1.928518 1.730969 1.695695 -6.775558 9.576151 62.398609 -59.459093 -105.821203 3.222598 -7.987111 10.618611 0.433269 -62.513111 13.001482 171.743961 86.155560 170.837188 -10.449790 -21.701616 13.694690 -0.009821 0.013029 0.011946 3.449065 -61.299897 -1.462258 121.454950 77.465909 120.717984 -4.841481 -21.177540 -2.222575 0.024477 0.125236 0.008265
-4.070673 52.960877 18.869195 179.032179 -15.524380 -2.664374 0.906170 15.481759 1.384335 0.075872 1.484559 0.128380 0.122368 2.472476 0.224066 0.826473 13.798621 1.327512 -0.645918 16.082275 -4.088635 0.251697 -8.761818 -4.186330 1.413247 -1.413774 2.341652 1.756783 -7.404865 -7.142901 -87.752401 -81.408263 118.624141 -5.657103 -20.769360 -10.992942 -6.171322 -1.947079 1.748077 1.727049 -6.773241 9.571749 62.447947 -59.466991 -105.856994 3.235590 -7.972196 10.603616 0.428319 -62.508915 12.993570 171.572971 86.151107 170.660216 -10.397772 -21.712829 13.685707 -0.006922 0.004507 0.005314 3.443443 -61.298204 -1.465519 121.450113 77.465537 120.713685 -4.843909 -21.174348 -2.222974 0.026043 0.123660 0.008831
